<?xml version="1.0" encoding="UTF-8"?>
<svg width="16px" height="14px" viewBox="0 0 16 14" version="1.1" xmlns="http://www.w3.org/2000/svg" xmlns:xlink="http://www.w3.org/1999/xlink">
    <!-- Generator: Sketch 46.2 (44496) - http://www.bohemiancoding.com/sketch -->
    <title>Icons/Menu X Icon</title>
    <desc>Created with Sketch.</desc>
    <defs></defs>
    <g id="Symbols" stroke="none" stroke-width="1" fill="none" fill-rule="evenodd">
        <g id="Icons/Menu-X-Icon" fill="#FFFFFF">
            <path d="M0.156854249,6 L15.5710678,6 L15.5710678,6 C16.1233526,6 16.5710678,6.44771525 16.5710678,7 L16.5710678,7 L16.5710678,7 C16.5710678,7.55228475 16.1233526,8 15.5710678,8 L0.156854249,8 L0.156854249,8 C-0.3954305,8 -0.843145751,7.55228475 -0.843145751,7 L-0.843145751,7 L-0.843145751,7 C-0.843145751,6.44771525 -0.3954305,6 0.156854249,6 Z" id="Rectangle" transform="translate(7.863961, 7.000000) rotate(45.000000) translate(-7.863961, -7.000000) "></path>
            <path d="M0.156854249,6 L15.5710678,6 L15.5710678,6 C16.1233526,6 16.5710678,6.44771525 16.5710678,7 L16.5710678,7 L16.5710678,7 C16.5710678,7.55228475 16.1233526,8 15.5710678,8 L0.156854249,8 L0.156854249,8 C-0.3954305,8 -0.843145751,7.55228475 -0.843145751,7 L-0.843145751,7 L-0.843145751,7 C-0.843145751,6.44771525 -0.3954305,6 0.156854249,6 Z" id="Rectangle" transform="translate(7.863961, 7.000000) scale(-1, 1) rotate(45.000000) translate(-7.863961, -7.000000) "></path>
        </g>
    </g>
</svg>