<?xml version="1.0" encoding="UTF-8" standalone="no"?>
<svg width="11px" height="7px" viewBox="0 0 11 7" version="1.1" xmlns="http://www.w3.org/2000/svg" xmlns:xlink="http://www.w3.org/1999/xlink">
    <!-- Generator: Sketch 42 (36781) - http://www.bohemiancoding.com/sketch -->
    <title>Icons/Menu-arrow white</title>
    <desc>Created with Sketch.</desc>
    <defs></defs>
    <g id="Symbols" stroke="none" stroke-width="1" fill="none" fill-rule="evenodd">
        <g id="Icons/Menu-arrow-white" fill="#FFFFFF">
            <g id="Group-2">
                <path d="M6.34619408,0.620652141 C6.34619408,0.0646719931 6.7900589,-0.386038969 7.34619408,-0.386038969 L7.34619408,-0.386038969 C7.89847883,-0.386038969 8.34619408,0.0585433032 8.34619408,0.620652141 L8.34619408,6.07173601 C8.34619408,6.62771616 7.90232926,7.07842712 7.34619408,7.07842712 L7.34619408,7.07842712 C6.79390933,7.07842712 6.34619408,6.63384485 6.34619408,6.07173601 L6.34619408,0.620652141 Z" id="&lt;-copy-3" transform="translate(7.346194, 3.346194) rotate(45.000000) translate(-7.346194, -3.346194) "></path>
                <path d="M2.34619408,0.620652141 C2.34619408,0.0646719931 2.7900589,-0.386038969 3.34619408,-0.386038969 L3.34619408,-0.386038969 C3.89847883,-0.386038969 4.34619408,0.0585433032 4.34619408,0.620652141 L4.34619408,6.07173601 C4.34619408,6.62771616 3.90232926,7.07842712 3.34619408,7.07842712 L3.34619408,7.07842712 C2.79390933,7.07842712 2.34619408,6.63384485 2.34619408,6.07173601 L2.34619408,0.620652141 Z" id="&lt;-copy-2" transform="translate(3.346194, 3.346194) scale(-1, 1) rotate(45.000000) translate(-3.346194, -3.346194) "></path>
            </g>
        </g>
    </g>
</svg>